<svg xmlns="http://www.w3.org/2000/svg" viewBox="0 0 2019 709" width="2019" height="709"><style>.a{fill:#14b8a6}</style><path class="a" d="m74.5 111.4l2-1.9h474.4l2 1.9v481.3l-2 2.3h-474.4l-2-2.3zm442 33.8h-405.9v413.7h405.9zm-44 51.4v1.9q-24.7 21.2-38 40-106.3 143.8-126.5 248.8-2 19.2-7.2 19.2-38 15.3-42.2 15.3-32.9-83.9-99.5-83.9h-7.5v-2.3l52.7-23.7q49.1 0 72.8 42.6h2q16.5-54 37-91.8 31.9-58.2 82.3-119 31.5-39 74.1-47.1zm208.8 398.3l22.8-115.7h117.1l-22.8 115.7zm151.9-178.5l-2.6 14.6h-117.4l2.6-15.9q5.2-26 19.2-46.2 14.3-20.5 56.9-53.6l24-18.9q25.7-19.8 37.4-37.1 11.7-17.2 11.7-34.8 0-18.5-13.3-28.3-13-10-37.7-10-26 0-58.9 11-32.5 10.8-69.9 32.2l20.2-102.1q41.3-13.7 75.4-20.2 34.2-6.5 65.7-6.5 63.1 0 98.9 28 35.7 27.6 35.7 76.1 0 38.7-17.2 69.3-17.2 30.5-58.9 63.7l-24.7 19.5q-26 20.2-35.4 32.9-9.1 12.3-11.7 26.3zm234.4 178.5l22.8-115.7h117.1l-22.8 115.7zm151.9-178.5l-2.6 14.6h-117.4l2.6-15.9q5.2-26 19.2-46.2 14.3-20.5 56.9-53.6l24-18.9q25.7-19.8 37.4-37.1 11.7-17.2 11.7-34.8 0-18.5-13.3-28.3-13-10-37.7-10-26 0-58.9 11-32.5 10.8-69.9 32.2l20.2-102.1q41.3-13.7 75.4-20.2 34.2-6.5 65.7-6.5 63.1 0 98.9 28 35.7 27.6 35.7 76.1 0 38.7-17.2 69.3-17.2 30.5-58.9 63.7l-24.7 19.5q-26 20.2-35.4 32.9-9.1 12.3-11.7 26.3zm225-304.7l2-2.3h473.4l2.3 2.3v481.3l-2.3 1.9h-473.4l-2-1.9zm441.6 33.8h-405.8v413.7h405.8z"/></svg>